<svg xmlns="http://www.w3.org/2000/svg" viewBox="0 0 374 374" width="374" height="374"><defs><linearGradient id="13396014216730315682" x1="250.75043862630676" x2="261.24956137369327" y1="68.82360029805082" y2="443.1763997019492" gradientTransform="matrix(0.002670209,0,0,0.002670209,-0.183573561,-0.183573561)"><stop stop-color="#d286af" /><stop offset="1" stop-color="#87c5e8" /></linearGradient></defs><g transform="matrix(1,0,0,1,-68.748755563,-68.748755563)">
<g>
	<g>
		<path d="M443.1764,250.750439C446.073028,354.031527 364.530649,440.279772 261.249561,443.1764 C157.968473,446.073028 71.720228,364.530649 68.8236,261.249561 C65.926972,157.968473 147.469351,71.720228 250.750439,68.8236 C354.031527,65.926972 440.279772,147.469351 443.1764,250.750439 Z" fill="url('#13396014216730315682')"/>
	</g>
	<g>
		<path d="M371.734061,256.778019C371.734061,256.778019 393.220063,359.335515 393.220063,359.335515 C393.220063,359.335515 368.908764,359.335515 368.908764,359.335515 C368.908764,359.335515 364.514029,333.82784 364.514029,333.82784 C364.514029,333.82784 334.96645,333.82784 334.96645,333.82784 C334.96645,333.82784 330.758725,359.335515 330.758725,359.335515 C330.758725,359.335515 306.353921,359.335515 306.353921,359.335515 C306.353921,359.335515 334.652168,223.836883 334.652168,223.836883 C334.652168,223.836883 178.728343,85.324323 178.728343,85.324323 C178.728343,85.324323 147.550998,97.647339 118.261279,129.269904 C84.163372,166.083617 77.346665,198.764159 77.346665,198.764159 C77.346665,198.764159 248.254467,350.453837 248.254467,350.453837 C248.254467,350.453837 297.610602,350.295205 297.610602,350.295205 C297.610602,350.295205 297.571317,338.072371 297.571317,338.072371 C297.571317,338.072371 304.634938,338.049668 304.634938,338.049668 C304.634938,338.049668 304.703046,359.240531 304.703046,359.240531 C304.703046,359.240531 258.322334,359.3896 258.322334,359.3896 C258.322334,359.3896 334.133132,426.675677 334.133132,426.675677 C334.133132,426.675677 366.698352,414.116539 398.931394,376.959349 C429.525924,341.690981 434.653335,312.6714 434.653335,312.6714 C434.653335,312.6714 371.734061,256.778019 371.734061,256.778019 L 371.734061,256.778019 ZM361.708879,317.572949C361.708879,317.572949 350.301269,246.301505 350.301269,246.301505 C350.301269,246.301505 349.272714,246.301505 349.272714,246.301505 C349.272714,246.301505 337.7716,317.572949 337.7716,317.572949 C337.7716,317.572949 361.708879,317.572949 361.708879,317.572949 L 361.708879,317.572949 ZM305.097677,320.423572C305.102276,321.854763 304.899549,323.419354 304.489495,325.117343 C304.079441,326.815333 303.218976,328.428205 301.908101,329.95596 C300.597225,331.483715 298.621801,332.736598 295.98183,333.71461 C293.34186,334.692621 289.805836,335.18875 285.37376,335.202994 C285.37376,335.202994 264.425277,335.270323 264.425277,335.270323 C260.870383,335.281749 257.908837,334.962321 255.540641,334.312039 C253.172444,333.661758 251.276796,332.802202 249.853697,331.733371 C248.430597,330.66454 247.364925,329.479141 246.65668,328.177173 C245.948434,326.875206 245.482549,325.566688 245.259025,324.25162 C245.0355,322.936552 244.921958,321.725009 244.918396,320.61699 C244.914984,319.555139 245.015058,318.371764 245.21862,317.066865 C245.422181,315.761967 245.86237,314.462079 246.539185,313.167202 C247.216,311.872324 248.256737,310.685926 249.661394,309.608007 C251.066052,308.530088 252.956135,307.658364 255.331645,306.992836 C257.707155,306.327308 260.706982,305.98872 264.331127,305.977072 C264.331127,305.977072 285.279611,305.909743 285.279611,305.909743 C289.665519,305.895646 293.175878,306.392211 295.810688,307.399437 C298.445497,308.406664 300.429045,309.681449 301.76133,311.223792 C303.093615,312.766136 303.981706,314.361847 304.425601,316.010924 C304.869497,317.66 305.093522,319.130883 305.097677,320.423572 L 305.097677,320.423572 ZM298.068681,320.446164C298.062968,318.668716 297.389311,317.355095 296.04771,316.505301 C294.706109,315.655506 292.200152,315.236507 288.529839,315.248303 C288.529839,315.248303 261.868132,315.333995 261.868132,315.333995 C258.082401,315.346162 255.481083,315.781576 254.064179,316.640237 C252.647275,317.498898 251.941679,318.816952 251.947392,320.594399 C251.953253,322.418013 252.667399,323.760359 254.089831,324.621436 C255.512262,325.482513 258.116344,325.906968 261.902075,325.8948 C261.902075,325.8948 288.563782,325.809109 288.563782,325.809109 C292.234094,325.797312 294.737288,325.356443 296.073362,324.4865 C297.409436,323.616557 298.074542,322.269778 298.068681,320.446164 L 298.068681,320.446164 ZM304.977597,283.062558C304.980862,284.078242 304.88641,285.215431 304.694241,286.474124 C304.502073,287.732818 304.079049,288.986483 303.425169,290.235119 C302.771289,291.483755 301.77082,292.629627 300.42376,293.672735 C299.076701,294.715843 297.261546,295.55847 294.978298,296.200618 C292.695049,296.842765 289.810603,297.169441 286.32496,297.180644 C286.32496,297.180644 245.362884,297.312297 245.362884,297.312297 C245.362884,297.312297 245.33406,288.344268 245.33406,288.344268 C245.33406,288.344268 288.408298,288.205826 288.408298,288.205826 C292.07861,288.19403 294.587649,287.776225 295.935413,286.952413 C297.283178,286.1286 297.95424,284.839512 297.948602,283.085149 C297.942889,281.307702 297.263517,280.011412 295.910485,279.19628 C294.557453,278.381148 292.04578,277.97948 288.375468,277.991277 C288.375468,277.991277 245.30123,278.129719 245.30123,278.129719 C245.30123,278.129719 245.272518,269.196316 245.272518,269.196316 C245.272518,269.196316 286.234594,269.064662 286.234594,269.064662 C289.720237,269.053459 292.606723,269.361587 294.894053,269.989044 C297.181382,270.616502 299.001915,271.447444 300.355652,272.481872 C301.709389,273.516299 302.717204,274.655717 303.379096,275.900123 C304.040989,277.14453 304.472044,278.389679 304.672262,279.63557 C304.87248,280.881461 304.974259,282.02379 304.977597,283.062558 L 304.977597,283.062558 ZM245.241469,259.535775C245.241469,259.535775 245.212645,250.567747 245.212645,250.567747 C245.212645,250.567747 304.353158,250.377667 304.353158,250.377667 C304.353158,250.377667 304.381981,259.345696 304.381981,259.345696 C304.381981,259.345696 245.241469,259.535775 245.241469,259.535775 L 245.241469,259.535775 ZM292.349777,243.283301C291.080172,243.287381 289.902661,243.216143 288.817244,243.069586 C287.731826,242.923029 286.576916,242.701672 285.352514,242.405515 C285.352514,242.405515 285.330145,235.445771 285.330145,235.445771 C285.330145,235.445771 287.96169,235.437313 287.96169,235.437313 C291.147245,235.427075 293.586791,234.934471 295.280329,233.959501 C296.973867,232.984531 297.817409,231.492904 297.810954,229.48462 C297.799825,226.022061 296.097607,224.296234 292.704299,224.30714 C291.388526,224.311369 290.004411,224.598597 288.551954,225.168822 C287.099497,225.739047 285.325593,226.847008 283.230241,228.492704 C283.230241,228.492704 271.522213,237.879341 271.522213,237.879341 C269.403777,239.525111 267.284173,240.807313 265.163401,241.725946 C263.042628,242.644579 260.678012,243.108087 258.06955,243.116471 C254.145316,243.129083 250.926994,241.921748 248.414582,239.494464 C245.90217,237.067181 244.639027,233.69521 244.625153,229.378553 C244.61395,225.89291 245.23419,223.155467 246.485873,221.166223 C247.737556,219.176978 249.320055,217.769541 251.23337,216.943911 C253.146686,216.118281 255.107486,215.702238 257.115771,215.695784 C258.385376,215.691703 259.55719,215.786044 260.631214,215.978805 C261.705238,216.171567 262.889003,216.392831 264.182508,216.642597 C264.182508,216.642597 264.204765,223.567716 264.204765,223.567716 C264.204765,223.567716 261.365466,223.576842 261.365466,223.576842 C258.249163,223.586857 255.85005,224.090874 254.168129,225.08889 C252.486207,226.086906 251.648213,227.509264 251.654149,229.355962 C251.659565,231.041074 252.131109,232.314948 253.068782,233.177583 C254.006456,234.040218 255.260139,234.469013 256.829833,234.463968 C258.168689,234.459665 259.385465,234.178746 260.480162,233.621213 C261.574858,233.063679 262.697927,232.356008 263.849368,231.498201 C263.849368,231.498201 277.042847,221.033386 277.042847,221.033386 C279.506648,219.109498 281.850725,217.641903 284.075077,216.630601 C286.29943,215.619299 288.773546,215.109271 291.497426,215.100517 C295.583246,215.087385 298.824931,216.38121 301.22248,218.981992 C303.62003,221.582775 304.825779,225.053037 304.839727,229.392777 C304.851152,232.947672 304.254163,235.736979 303.048759,237.760701 C301.843355,239.784422 300.283995,241.209098 298.37068,242.034728 C296.457364,242.860358 294.450397,243.276549 292.349777,243.283301 L 292.349777,243.283301 Z" fill="#f9ec51"/>
	</g>
</g></g></svg>